<svg width="10" height="10" viewBox="0 0 10 10" fill="none" xmlns="http://www.w3.org/2000/svg">
<path d="M9.375 2.5C9.375 2.65992 9.31396 2.81992 9.19189 2.9418L4.19189 7.9418C4.07031 8.06445 3.91016 8.125 3.75 8.125C3.58984 8.125 3.43008 8.06396 3.3082 7.94189L0.808203 5.44189C0.686133 5.32031 0.625 5.16016 0.625 5C0.625 4.64297 0.916992 4.375 1.25 4.375C1.40992 4.375 1.56992 4.43604 1.6918 4.55811L3.75 6.61719L8.30859 2.05859C8.42969 1.93613 8.58984 1.875 8.75 1.875C9.08398 1.875 9.375 2.14258 9.375 2.5Z" fill="#3D1D0C"/>
</svg>
