<svg width="100" height="100" viewBox="0 0 100 100" fill="none" xmlns="http://www.w3.org/2000/svg">
<path d="M50 14.2752C30.3 14.2752 14.2751 30.3022 14.2751 50.0012C14.2751 69.7002 30.3 85.7248 50 85.7248C69.699 85.7248 85.7248 69.7002 85.7248 50.0012C85.7248 30.3022 69.6992 14.2752 50 14.2752ZM50 80.0897C33.408 80.0897 19.9101 66.592 19.9101 50.001C19.9101 33.408 33.408 19.9102 50 19.9102C66.5919 19.9102 80.0898 33.408 80.0898 50.001C80.0898 66.592 66.5919 80.0897 50 80.0897Z" fill="#3D1D0C" fill-opacity="0.7"/>
<path d="M44.3508 42.9994C44.3508 40.7393 47.6564 40.3533 50.5238 40.3533C53.2264 40.3533 56.9191 41.6199 60.0068 43.2207L60.6119 36.9912C59.0678 36.1084 55.4855 35.0608 51.8469 34.8418L52.7287 28.5018H46.8301L47.7131 34.8418C40.1063 35.5574 37.625 39.9672 37.625 43.661C37.625 52.9768 54.9879 50.9943 54.9879 56.725C54.9879 58.8768 52.95 59.6467 49.3658 59.6467C44.5158 59.6467 40.8762 57.9397 39.0033 56.1742L38.0652 63.1758C39.8309 64.2234 43.4119 65.1604 47.7131 65.3817L46.8301 71.5006H52.7287L51.8469 65.3254C60.777 64.5531 62.3754 59.8117 62.3754 56.6709C62.3756 45.5914 44.3508 48.3461 44.3508 42.9994Z" fill="#3D1D0C" fill-opacity="0.7"/>
</svg>
