<svg width="18" height="19" viewBox="0 0 18 19" fill="none" xmlns="http://www.w3.org/2000/svg">
<g clip-path="url(#clip0_67_400)">
<path d="M15.1875 16.0208H2.81251C2.71662 16.0206 2.6224 15.9958 2.53879 15.9488C2.45519 15.9019 2.38497 15.8343 2.33481 15.7526C2.28465 15.6709 2.25622 15.5777 2.2522 15.4819C2.24819 15.3861 2.26873 15.2908 2.31188 15.2052C3.00593 13.8063 3.36964 12.2668 3.37501 10.7052V8.70834C3.37501 7.2165 3.96764 5.78576 5.02253 4.73087C6.07742 3.67598 7.50816 3.08334 9.00001 3.08334C10.4918 3.08334 11.9226 3.67598 12.9775 4.73087C14.0324 5.78576 14.625 7.2165 14.625 8.70834V10.694C14.6304 12.2556 14.9941 13.7951 15.6881 15.194C15.7339 15.28 15.7566 15.3764 15.7539 15.4739C15.7512 15.5713 15.7233 15.6663 15.6728 15.7497C15.6223 15.8331 15.5511 15.9019 15.466 15.9494C15.3809 15.9969 15.285 16.0216 15.1875 16.0208ZM3.68438 14.8958H14.3156C13.7792 13.5598 13.5024 12.1337 13.5 10.694V8.70834C13.5 7.51487 13.0259 6.37028 12.182 5.52636C11.3381 4.68245 10.1935 4.20834 9.00001 4.20834C7.80653 4.20834 6.66194 4.68245 5.81803 5.52636C4.97411 6.37028 4.50001 7.51487 4.50001 8.70834V10.694C4.4976 12.1337 4.22079 13.5598 3.68438 14.8958Z" fill="#99532E" fill-opacity="0.7"/>
<path d="M9 18.2708C8.25408 18.2708 7.53871 17.9745 7.01126 17.4471C6.48382 16.9196 6.1875 16.2043 6.1875 15.4583C6.1875 15.3092 6.24676 15.1661 6.35225 15.0606C6.45774 14.9551 6.60082 14.8958 6.75 14.8958C6.89918 14.8958 7.04226 14.9551 7.14775 15.0606C7.25324 15.1661 7.3125 15.3092 7.3125 15.4583C7.31289 15.9057 7.49094 16.3347 7.8075 16.6508C8.12941 16.9563 8.55624 17.1266 9 17.1266C9.44376 17.1266 9.87059 16.9563 10.1925 16.6508C10.2449 16.5984 10.3072 16.5568 10.3757 16.5284C10.4443 16.5 10.5177 16.4854 10.5919 16.4854C10.666 16.4854 10.7395 16.5 10.808 16.5284C10.8765 16.5568 10.9388 16.5984 10.9913 16.6508C11.0437 16.7033 11.0853 16.7656 11.1137 16.8341C11.1421 16.9026 11.1567 16.976 11.1567 17.0502C11.1567 17.1244 11.1421 17.1978 11.1137 17.2664C11.0853 17.3349 11.0437 17.3971 10.9913 17.4496C10.7296 17.7106 10.419 17.9175 10.0774 18.0584C9.73569 18.1993 9.36959 18.2715 9 18.2708Z" fill="#99532E" fill-opacity="0.7"/>
<path d="M9 4.20834C8.85082 4.20834 8.70774 4.14908 8.60225 4.04359C8.49676 3.9381 8.4375 3.79503 8.4375 3.64584V1.95834C8.4375 1.80916 8.49676 1.66609 8.60225 1.5606C8.70774 1.45511 8.85082 1.39584 9 1.39584C9.14918 1.39584 9.29226 1.45511 9.39775 1.5606C9.50324 1.66609 9.5625 1.80916 9.5625 1.95834V3.64584C9.5625 3.79503 9.50324 3.9381 9.39775 4.04359C9.29226 4.14908 9.14918 4.20834 9 4.20834Z" fill="#99532E" fill-opacity="0.7"/>
</g>
<defs>
<clipPath id="clip0_67_400">
<rect width="18" height="18" fill="white" transform="translate(0 0.833344)"/>
</clipPath>
</defs>
</svg>
