<svg width="20" height="20" viewBox="0 0 20 20" fill="none" xmlns="http://www.w3.org/2000/svg">
<g clip-path="url(#clip0_34_1011)">
<path d="M19.4323 3.60072L16.3993 0.567747C16.0332 0.20161 15.5465 0 15.0287 0C14.511 0 14.0242 0.20161 13.6581 0.567735L0.96199 13.2638C0.841483 13.3843 0.763801 13.541 0.740903 13.7099L0.00708129 19.1161C-0.0256278 19.3573 0.056145 19.5998 0.228204 19.7718C0.375277 19.9189 0.573843 20 0.779024 20C0.813832 20 0.848864 19.9977 0.883861 19.9929L6.29004 19.2591C6.45894 19.2362 6.61566 19.1586 6.73617 19.038L19.4323 6.34197C19.7984 5.97586 20 5.48909 20 4.97136C20 4.45359 19.7984 3.96682 19.4323 3.60072ZM5.82017 17.7505L1.68871 18.3112L2.24951 14.1798L11.2463 5.18302L14.817 8.7537L5.82017 17.7505ZM18.3305 5.24017L15.9187 7.65191L12.3481 4.08125L14.7598 1.66952C14.8567 1.57262 14.9699 1.55814 15.0287 1.55814C15.0875 1.55814 15.2006 1.57262 15.2976 1.66952L18.3305 4.70249C18.4274 4.79938 18.4419 4.91252 18.4419 4.97133C18.4419 5.03013 18.4274 5.14327 18.3305 5.24017Z" fill="#99532E" fill-opacity="0.7"/>
</g>
<defs>
<clipPath id="clip0_34_1011">
<rect width="20" height="20" fill="white"/>
</clipPath>
</defs>
</svg>
