<svg width="100" height="101" viewBox="0 0 100 101" fill="none" xmlns="http://www.w3.org/2000/svg">
<g clip-path="url(#clip0_19_407)">
<path d="M95.0584 38.9L91.6167 16.5334C91.4655 15.5499 90.9672 14.653 90.2122 14.0049C89.4571 13.3569 88.4951 13.0004 87.5 13C64.7209 13 53.0459 1.81669 52.9459 1.72085C52.1652 0.944807 51.1091 0.509216 50.0084 0.509216C48.9076 0.509216 47.8515 0.944807 47.0709 1.72085C46.9542 1.81669 35.2792 13 12.5 13C11.505 13.0004 10.5429 13.3569 9.78787 14.0049C9.03281 14.653 8.53461 15.5499 8.38336 16.5334L4.94169 38.9C3.39801 49.0603 5.01385 59.4496 9.57043 68.6611C14.127 77.8726 21.4042 85.4614 30.4167 90.4L48 99.9833C48.6122 100.317 49.2985 100.492 49.9959 100.492C50.6933 100.492 51.3795 100.317 51.9917 99.9833L69.575 90.4C78.5891 85.4626 85.868 77.8744 90.4261 68.6627C94.9842 59.4511 96.6013 49.0612 95.0584 38.9ZM65.5917 83.0667L50 91.5875L34.4084 83.0834C26.8947 78.9702 20.8266 72.6474 17.0257 64.971C13.2248 57.2947 11.8747 48.6358 13.1584 40.1667L16.075 21.2459C28.2404 20.9735 40.0497 17.0878 50 10.0834C59.9464 17.0869 71.751 20.9739 83.9125 21.25L86.8292 40.1667C88.1139 48.6344 86.7657 57.2924 82.9671 64.9686C79.1686 72.6448 73.103 78.9684 65.5917 83.0834V83.0667Z" fill="#3D1D0C" fill-opacity="0.7"/>
<path d="M63.7208 35.0542L41.6667 57.1083L36.2792 51.7208C35.8948 51.3229 35.435 51.0054 34.9267 50.7871C34.4183 50.5687 33.8716 50.4538 33.3184 50.4489C32.7651 50.4441 32.2164 50.5496 31.7044 50.7591C31.1923 50.9686 30.7271 51.278 30.3359 51.6692C29.9446 52.0604 29.6353 52.5256 29.4258 53.0377C29.2163 53.5497 29.1108 54.0984 29.1156 54.6517C29.1204 55.2049 29.2354 55.7517 29.4538 56.26C29.6721 56.7684 29.9896 57.2281 30.3875 57.6125L38.7208 65.9458C39.5022 66.727 40.5618 67.1658 41.6667 67.1658C42.7715 67.1658 43.8311 66.727 44.6125 65.9458L69.6125 40.9458C70.3715 40.16 70.7915 39.1075 70.782 38.015C70.7725 36.9225 70.3343 35.8774 69.5618 35.1049C68.7892 34.3324 67.7442 33.8942 66.6517 33.8847C65.5592 33.8752 64.5067 34.2952 63.7208 35.0542Z" fill="#3D1D0C" fill-opacity="0.7"/>
</g>
<defs>
<clipPath id="clip0_19_407">
<rect width="100" height="100" fill="white" transform="translate(0 0.5)"/>
</clipPath>
</defs>
</svg>
