<svg width="30" height="30" viewBox="0 0 30 30" fill="none" xmlns="http://www.w3.org/2000/svg">
<g clip-path="url(#clip0_16_330)">
<path d="M3.9513 5.58626C5.40138 4.13592 7.3463 3.28762 9.3958 3.21157C11.4453 3.13553 13.4477 3.83736 15.0013 5.17626C16.5535 3.83959 18.5533 3.13855 20.6003 3.21346C22.6474 3.28837 24.5906 4.13372 26.0409 5.58027C27.4912 7.02681 28.3417 8.96779 28.4219 11.0146C28.5022 13.0615 27.8064 15.0631 26.4738 16.6188L16.7676 26.3563C16.3216 26.8024 15.7235 27.0634 15.0932 27.087C14.4629 27.1107 13.8469 26.8952 13.3688 26.4838L13.2313 26.3575L3.5263 16.6188C2.19441 15.0644 1.49828 13.0646 1.57707 11.0192C1.65587 8.97383 2.50378 7.03353 3.9513 5.58626ZM5.7188 7.35376C4.69661 8.37624 4.10737 9.75306 4.07339 11.1985C4.03941 12.6439 4.56329 14.0469 5.5363 15.1163L5.7188 15.3088L15.0001 24.59L21.6288 17.96L17.2101 13.5413L15.8851 14.8663C15.5369 15.2146 15.1235 15.4909 14.6686 15.6795C14.2136 15.8681 13.7259 15.9652 13.2334 15.9653C12.2388 15.9656 11.2848 15.5707 10.5813 14.8675C9.87782 14.1644 9.48247 13.2105 9.48224 12.2159C9.482 11.2212 9.8769 10.2672 10.5801 9.56376L13.2076 6.93501C12.1619 6.10048 10.8531 5.66587 9.51591 5.70917C8.17876 5.75246 6.90079 6.27083 5.9113 7.17126L5.7188 7.35376ZM16.3263 10.8888C16.5607 10.6544 16.8786 10.5228 17.2101 10.5228C17.5415 10.5228 17.8594 10.6544 18.0938 10.8888L23.3963 16.1913L24.2813 15.3088C25.3206 14.2702 25.9123 12.8662 25.9298 11.397C25.9474 9.92776 25.3893 8.51003 24.3751 7.44695C23.3608 6.38387 21.9709 5.75984 20.5025 5.70832C19.0341 5.6568 17.6038 6.18188 16.5176 7.17126L16.3263 7.35376L12.3488 11.3313C12.1321 11.5478 12.0025 11.8363 11.9845 12.1421C11.9666 12.4479 12.0615 12.7496 12.2513 12.99L12.3488 13.0988C12.5653 13.3154 12.8539 13.445 13.1596 13.463C13.4654 13.481 13.7671 13.3861 14.0076 13.1963L14.1163 13.0988L16.3263 10.8888Z" fill="#99532E"/>
</g>
<defs>
<clipPath id="clip0_16_330">
<rect width="30" height="30" fill="white"/>
</clipPath>
</defs>
</svg>
