<svg width="24" height="25" viewBox="0 0 24 25" fill="none" xmlns="http://www.w3.org/2000/svg">
<path d="M12 15.3333C13.6569 15.3333 15 13.9902 15 12.3333C15 10.6765 13.6569 9.33334 12 9.33334C10.3431 9.33334 9 10.6765 9 12.3333C9 13.9902 10.3431 15.3333 12 15.3333Z" stroke="#99532E" stroke-opacity="0.7" stroke-width="2" stroke-miterlimit="10" stroke-linecap="round" stroke-linejoin="round"/>
<path d="M20.8184 8.10784L20.0684 6.80884C19.6544 6.09109 18.7372 5.84584 18.0194 6.25984L17.6249 6.48784C16.1249 7.35334 14.2499 6.27109 14.2499 4.53934V4.08334C14.2499 3.25459 13.5787 2.58334 12.7499 2.58334H11.2499C10.4212 2.58334 9.74992 3.25459 9.74992 4.08334V4.53934C9.74992 6.27109 7.87492 7.35409 6.37492 6.48784L5.98042 6.25984C5.26267 5.84584 4.34542 6.09109 3.93142 6.80884L3.18142 8.10784C2.76742 8.82559 3.01267 9.74284 3.73042 10.1568L4.12492 10.3848C5.62492 11.2511 5.62492 13.4156 4.12492 14.2818L3.73042 14.5098C3.01267 14.9238 2.76742 15.8411 3.18142 16.5588L3.93142 17.8578C4.34542 18.5756 5.26267 18.8208 5.98042 18.4068L6.37492 18.1788C7.87492 17.3126 9.74992 18.3956 9.74992 20.1273V20.5833C9.74992 21.4121 10.4212 22.0833 11.2499 22.0833H12.7499C13.5787 22.0833 14.2499 21.4121 14.2499 20.5833V20.1273C14.2499 18.3956 16.1249 17.3126 17.6249 18.1788L18.0194 18.4068C18.7372 18.8208 19.6544 18.5756 20.0684 17.8578L20.8184 16.5588C21.2324 15.8411 20.9872 14.9238 20.2694 14.5098L19.8749 14.2818C18.3749 13.4156 18.3749 11.2511 19.8749 10.3848L20.2694 10.1568C20.9872 9.74284 21.2332 8.82559 20.8184 8.10784Z" stroke="#99532E" stroke-opacity="0.7" stroke-width="2" stroke-miterlimit="10" stroke-linecap="round" stroke-linejoin="round"/>
</svg>
