<svg width="25" height="24" viewBox="0 0 25 24" fill="none" xmlns="http://www.w3.org/2000/svg">
<path d="M10.0113 9.15806C10.0113 9.15806 6.8513 9.50806 4.7433 9.74206C4.5533 9.76506 4.3853 9.89206 4.3223 10.0851C4.2593 10.2781 4.3223 10.4791 4.4623 10.6061C6.0283 12.0351 8.3813 14.1751 8.3813 14.1751C8.3793 14.1751 7.7353 17.2881 7.3073 19.3651C7.2713 19.5531 7.3393 19.7521 7.5033 19.8711C7.6663 19.9901 7.8763 19.9921 8.0413 19.8991C9.8853 18.8511 12.6473 17.2751 12.6473 17.2751C12.6473 17.2751 15.4103 18.8511 17.2513 19.9001C17.4193 19.9921 17.6293 19.9901 17.7923 19.8711C17.9563 19.7521 18.0243 19.5531 17.9873 19.3661C17.5593 17.2881 16.9163 14.1751 16.9163 14.1751C16.9163 14.1751 19.2693 12.0351 20.8353 10.6091C20.9753 10.4781 21.0373 10.2771 20.9753 10.0851C20.9133 9.89306 20.7453 9.76606 20.5553 9.74406C18.4473 9.50806 15.2863 9.15806 15.2863 9.15806C15.2863 9.15806 13.9763 6.26006 13.1033 4.32806C13.0213 4.15506 12.8493 4.03406 12.6473 4.03406C12.4453 4.03406 12.2723 4.15606 12.1943 4.32806C11.3203 6.26006 10.0113 9.15806 10.0113 9.15806Z" fill="#EFBB36"/>
</svg>
