<svg width="40" height="40" viewBox="0 0 40 40" fill="none" xmlns="http://www.w3.org/2000/svg">
<g clip-path="url(#clip0_23_617)">
<path fill-rule="evenodd" clip-rule="evenodd" d="M20.6829 17.9111C18.2971 20.1066 15.9684 22.1847 15.9684 22.1847C15.6463 22.4718 15.6188 22.9655 15.9059 23.2876C16.1929 23.609 16.6867 23.6372 17.0088 23.3501C17.0088 23.3501 23.1091 17.9049 25.7139 15.3001C26.1116 14.9032 26.2311 14.5989 26.2524 14.4726C26.3066 14.1512 26.194 13.9246 26.0319 13.7597C25.9131 13.6382 25.7366 13.5228 25.466 13.5111C25.3335 13.5056 25.0389 13.5571 24.6419 13.7439C22.3716 14.8118 13.3436 20.8263 13.3436 20.8263C12.9845 21.0653 12.8876 21.5508 13.1266 21.9093C13.3663 22.2685 13.8518 22.3653 14.2103 22.1263C14.2103 22.1263 17.5705 19.8848 20.6829 17.9111Z" fill="#99532E" fill-opacity="0.7"/>
<path fill-rule="evenodd" clip-rule="evenodd" d="M20 1.71875C9.91 1.71875 1.71875 9.91 1.71875 20C1.71875 30.09 9.91 38.2812 20 38.2812C30.09 38.2812 38.2812 30.09 38.2812 20C38.2812 9.91 30.09 1.71875 20 1.71875ZM20 3.28125C29.2275 3.28125 36.7188 10.7725 36.7188 20C36.7188 29.2275 29.2275 36.7188 20 36.7188C10.7725 36.7188 3.28125 29.2275 3.28125 20C3.28125 10.7725 10.7725 3.28125 20 3.28125Z" fill="#99532E" fill-opacity="0.7"/>
<path fill-rule="evenodd" clip-rule="evenodd" d="M13.15 22.0947L14.8215 27.5324C14.8277 27.5523 14.8346 27.5722 14.8421 27.5914C15.02 28.0378 15.1985 28.2974 15.3263 28.4203C15.557 28.6428 15.794 28.6943 15.9904 28.6888C16.2664 28.6806 16.7114 28.5158 16.8879 27.8613C16.9003 27.8132 16.9092 27.7645 16.9127 27.715L17.1654 24.2346L23.7684 29.0913C24.4469 29.6063 25.0568 29.7155 25.5189 29.5747C25.9955 29.4291 26.457 28.9924 26.6754 28.0625C26.6768 28.057 26.6782 28.0515 26.6788 28.046L29.9381 12.6884C30.1325 11.8705 30.0233 11.2593 29.7575 10.9022C29.4492 10.4867 28.8661 10.2044 27.8745 10.4723C27.8477 10.4791 27.8209 10.4881 27.7955 10.4984L8.65182 17.9228C8.62229 17.9344 8.59344 17.9482 8.56529 17.9626C7.6581 18.4495 7.4562 19.0064 7.45346 19.367C7.45002 19.8525 7.79064 20.3222 8.36888 20.5544C8.38605 20.5612 8.40322 20.5681 8.42108 20.5736L13.15 22.0947ZM28.4692 11.9453C28.4616 12.0566 28.4465 12.2077 28.4163 12.3347C28.4142 12.3416 28.4129 12.3485 28.4115 12.3553L25.1529 27.7109C25.1254 27.8242 25.0712 27.954 25.0348 28.0351C24.9483 27.9925 24.8102 27.9204 24.7106 27.8441C24.7065 27.8414 24.7031 27.8387 24.699 27.8359L16.9511 22.138C16.7224 21.9697 16.4196 21.9388 16.1614 22.0576C15.9031 22.1771 15.7301 22.4271 15.7095 22.7107L15.5687 24.6453L14.5235 21.2466C14.4486 21.0028 14.2591 20.8105 14.016 20.7322L9.48758 19.275L28.316 11.9721C28.3669 11.9605 28.4204 11.9515 28.4692 11.9453Z" fill="#99532E" fill-opacity="0.7"/>
<path fill-rule="evenodd" clip-rule="evenodd" d="M16.5027 28.4944L19.8993 25.5613C20.2255 25.2797 20.2619 24.786 19.9803 24.4598C19.6981 24.1336 19.2043 24.0972 18.8781 24.3787L15.4821 27.3118C15.1553 27.5934 15.1196 28.0871 15.4011 28.4133C15.6827 28.7402 16.1765 28.7759 16.5027 28.4944Z" fill="#99532E" fill-opacity="0.7"/>
</g>
<defs>
<clipPath id="clip0_23_617">
<rect width="40" height="40" fill="white"/>
</clipPath>
</defs>
</svg>
