<svg width="100" height="100" viewBox="0 0 100 100" fill="none" xmlns="http://www.w3.org/2000/svg">
<path d="M50 96.875C40.729 96.875 31.6662 94.1259 23.9576 88.9752C16.2491 83.8245 10.241 76.5036 6.69314 67.9383C3.14528 59.373 2.217 49.948 4.02568 40.8552C5.83436 31.7623 10.2988 23.41 16.8544 16.8544C23.4099 10.2988 31.7623 5.83439 40.8551 4.02571C49.948 2.21703 59.373 3.14531 67.9383 6.69317C76.5036 10.241 83.8244 16.2491 88.9751 23.9577C94.1258 31.6662 96.875 40.729 96.875 50C96.875 62.432 91.9364 74.3549 83.1456 83.1457C74.3549 91.9364 62.432 96.875 50 96.875ZM50 9.37502C41.9651 9.37502 34.1107 11.7576 27.4299 16.2216C20.7492 20.6855 15.5422 27.0303 12.4674 34.4535C9.39257 41.8768 8.58806 50.0451 10.1556 57.9256C11.7231 65.806 15.5923 73.0447 21.2738 78.7262C26.9553 84.4077 34.194 88.2769 42.0744 89.8444C49.9549 91.4119 58.1233 90.6074 65.5465 87.5326C72.9698 84.4578 79.3145 79.2508 83.7784 72.5701C88.2424 65.8893 90.625 58.0349 90.625 50C90.625 39.2256 86.3449 28.8925 78.7262 21.2738C71.1075 13.6551 60.7744 9.37502 50 9.37502Z" fill="#3D1D0C" fill-opacity="0.7"/>
<path d="M63.25 67.6875L47.7812 52.2187C47.4916 51.9267 47.2625 51.5805 47.107 51.1997C46.9514 50.819 46.8726 50.4113 46.875 50V25H53.125V48.7188L67.6875 63.25L63.25 67.6875Z" fill="#3D1D0C" fill-opacity="0.7"/>
</svg>
