<svg width="40" height="40" viewBox="0 0 40 40" fill="none" xmlns="http://www.w3.org/2000/svg">
<path d="M38.4284 12.2159C37.4211 9.83418 35.9794 7.69527 34.143 5.85871C32.3066 4.02211 30.1679 2.58004 27.7863 1.57254C25.3201 0.529219 22.7008 0.00015625 20 0C17.3006 0 14.6814 0.528906 12.2153 1.57199C9.83367 2.5793 7.69492 4.02117 5.85844 5.85754C4.02195 7.69391 2.57996 9.83258 1.5725 12.2141C0.529219 14.6802 0.000156285 17.2994 3.46171e-08 19.9988C-0.000156215 22.6984 0.528633 25.3178 1.57164 27.7841C2.57887 30.1659 4.0207 32.3048 5.85707 34.1413C7.69344 35.9779 9.83215 37.42 12.2138 38.4275C14.68 39.4708 17.2993 39.9999 19.9998 40H20.0002C22.6996 40 25.3187 39.4711 27.7849 38.428C30.1665 37.4207 32.3052 35.9789 34.1416 34.1425C35.9781 32.3062 37.4201 30.1675 38.4276 27.786C39.4709 25.3198 39.9999 22.7006 40 20.0012C40.0002 17.3016 39.4714 14.6823 38.4284 12.2159ZM20.0002 38.1378H19.999C15.1542 38.1375 10.5995 36.2506 7.17387 32.8246C3.74832 29.3986 1.86191 24.8437 1.86219 19.9989C1.86277 9.99832 9.99938 1.86223 20.0011 1.86223C24.8459 1.8625 29.4005 3.74941 32.8261 7.17539C36.2517 10.6014 38.138 15.1563 38.1378 20.0011C38.1372 30.0017 30.0007 38.1378 20.0002 38.1378Z" fill="#3D1D0C" fill-opacity="0.7"/>
<path d="M6.03532 15.5987C6.3361 16.3838 6.70684 17.1409 7.0895 17.8886C7.99875 19.6652 8.93512 21.3915 10.1906 22.953C11.4593 24.5309 12.9572 26.0601 14.7216 27.0809C15.2124 27.3648 15.7283 27.6044 16.2657 27.7864C18.3391 28.4887 20.6131 28.4219 21.3154 27.9537C22.0177 27.4855 21.1816 24.4087 21.817 24.0409C22.4525 23.673 23.5895 24.4756 24.4255 25.2114C25.2616 25.9471 25.897 26.5825 26.3652 27.0841C26.6584 27.3983 26.8648 27.7732 27.247 27.9972C27.8793 28.3678 28.7218 28.3267 29.427 28.3287C29.8202 28.3298 30.2135 28.3312 30.6067 28.3262C30.8724 28.323 31.1382 28.3315 31.4038 28.3187C31.8402 28.2975 32.4108 28.1253 32.3781 27.5794C32.3703 27.4503 32.3417 27.2959 32.2904 27.1768C32.1802 26.9207 32.0249 26.655 31.858 26.432C30.9886 25.2699 30.4117 24.6763 29.977 24.208C29.5422 23.7399 27.753 22.051 27.636 21.7166C27.519 21.3822 27.4813 21.2338 27.8136 20.7823C28.146 20.3308 28.8734 19.1917 29.4419 18.3724C29.7985 17.8585 30.1224 17.3212 30.4424 16.7842C30.8197 16.151 31.1745 15.5024 31.477 14.8299C31.6122 14.5292 31.7349 14.2553 31.6512 13.9183C31.595 13.6926 31.4681 13.4942 31.2317 13.4385C31.1026 13.4081 30.9618 13.4051 30.8297 13.4051C30.3365 13.4051 29.0489 13.4051 29.0489 13.4051C28.8162 13.4051 28.5834 13.4017 28.3506 13.4021C28.112 13.4025 27.8714 13.4006 27.6334 13.421C27.2949 13.45 27.0875 13.7111 26.9172 13.9743C26.7089 14.2964 26.5193 14.6314 26.3172 14.9576C26.179 15.1804 26.0438 15.405 25.9111 15.6311C25.7036 15.9842 25.4898 16.3336 25.2761 16.683C25.1874 16.8279 25.0983 16.9726 25.0109 17.1183C24.76 17.5363 22.5863 20.3956 22.1516 20.5127C21.7168 20.6298 21.5663 20.5964 21.5663 19.7101C21.5663 18.8239 21.5663 13.7908 21.5663 13.7908C21.5663 13.7908 21.533 13.4028 21.1651 13.4028C20.7972 13.4028 19.0909 13.4028 19.0909 13.4028H15.5718C15.5718 13.4028 14.7441 13.4062 15.0367 14.1503C15.3293 14.8944 16.1947 15.1202 16.1947 16.3617C16.1947 17.6032 16.1947 21.2275 16.1947 21.2275C16.1947 21.2275 16.0484 22.3186 15.1036 21.4156C14.3591 20.7041 13.7457 19.8628 13.2038 18.9906C12.6402 18.0837 12.1863 17.1416 11.7819 16.1546C11.6662 15.8722 11.5517 15.5895 11.4329 15.3085C11.3089 15.0152 11.1861 14.7213 11.0672 14.426C10.9291 14.0828 10.7813 13.6344 10.409 13.4764C10.2218 13.397 10.0148 13.4009 9.81524 13.4009C9.07528 13.4011 8.33536 13.4032 7.59543 13.4018C7.37832 13.4014 7.16122 13.4012 6.94411 13.4017C6.43149 13.4029 5.79391 13.3878 5.67231 14.0282C5.60223 14.3971 5.74153 14.7908 5.85813 15.1363C5.91098 15.2933 5.97618 15.4443 6.03532 15.5987Z" fill="#3D1D0C" fill-opacity="0.7"/>
</svg>
