<svg width="40" height="40" viewBox="0 0 40 40" fill="none" xmlns="http://www.w3.org/2000/svg">
<path d="M20 39.7142C16.3675 39.7272 12.8041 38.7215 9.7143 36.8113L5.37144 37.9542C4.91905 38.0733 4.44326 38.0711 3.99198 37.9478C3.5407 37.8246 3.12986 37.5846 2.80081 37.2521C2.47177 36.9195 2.23613 36.5062 2.11761 36.0536C1.9991 35.6011 2.0019 35.1253 2.12573 34.6742L3.26859 30.4456C2.217 28.7667 1.43062 26.9357 0.937159 25.017C0.384051 22.9083 0.179448 20.7233 0.331445 18.5485C0.600718 14.8696 1.89616 11.3399 4.07067 8.36019C6.24517 5.38052 9.21161 3.07027 12.6331 1.6918C16.0546 0.313331 19.7941 -0.0781334 23.4269 0.561863C27.0597 1.20186 30.4403 2.84767 33.1848 5.3124C35.9292 7.77714 37.9276 10.962 38.9529 14.5054C39.9782 18.0488 39.9895 21.8087 38.9853 25.3582C37.9812 28.9076 36.0019 32.1044 33.2722 34.5855C30.5425 37.0665 27.1718 38.7325 23.5429 39.3942C22.3741 39.6083 21.1882 39.7155 20 39.7142ZM9.7143 33.9428C10.2109 33.943 10.6977 34.0815 11.12 34.3428C12.6598 35.3021 14.3472 36.001 16.1143 36.4113C18.3651 36.9298 20.6975 36.9882 22.9714 36.5828C25.9896 36.0434 28.8032 34.6901 31.1086 32.6687C33.4139 30.6474 35.1234 28.0349 36.0527 25.1131C36.9819 22.1913 37.0955 19.0712 36.3813 16.0895C35.6671 13.1079 34.1522 10.3779 32 8.19419C29.7323 5.8808 26.8453 4.27085 23.6853 3.55749C20.5253 2.84414 17.2267 3.05768 14.185 4.1725C11.1434 5.28732 8.48805 7.25606 6.53754 9.84252C4.58702 12.429 3.4242 15.5233 3.18859 18.7542C2.91377 22.3688 3.8115 25.9758 5.74859 29.0399C5.94574 29.3551 6.0759 29.7075 6.13095 30.0752C6.186 30.4429 6.16478 30.8179 6.06859 31.177L4.92573 35.1656L9.14287 34.0342C9.34041 33.9797 9.54376 33.949 9.74859 33.9428H9.7143Z" fill="#99532E" fill-opacity="0.7"/>
</svg>
