<svg width="40" height="40" viewBox="0 0 40 40" fill="none" xmlns="http://www.w3.org/2000/svg">
<g clip-path="url(#clip0_66_2)">
<path d="M20 39.7142C16.3675 39.7272 12.8041 38.7215 9.7143 36.8113L5.37144 37.9542C4.91905 38.0733 4.44326 38.0711 3.99198 37.9478C3.5407 37.8246 3.12986 37.5846 2.80081 37.2521C2.47177 36.9195 2.23613 36.5062 2.11761 36.0536C1.9991 35.6011 2.0019 35.1253 2.12573 34.6742L3.26859 30.4456C2.217 28.7667 1.43062 26.9357 0.937159 25.017C0.384051 22.9083 0.179448 20.7233 0.331445 18.5485C0.600718 14.8696 1.89616 11.3399 4.07067 8.36019C6.24517 5.38052 9.21161 3.07027 12.6331 1.6918C16.0546 0.313331 19.7941 -0.0781334 23.4269 0.561863C27.0597 1.20186 30.4403 2.84767 33.1848 5.3124C35.9292 7.77714 37.9276 10.962 38.9529 14.5054C39.9782 18.0488 39.9895 21.8087 38.9853 25.3582C37.9812 28.9076 36.0019 32.1044 33.2722 34.5855C30.5425 37.0665 27.1718 38.7325 23.5429 39.3942C22.3741 39.6083 21.1882 39.7155 20 39.7142ZM9.7143 33.9428C10.2109 33.943 10.6977 34.0815 11.12 34.3428C12.6598 35.3021 14.3472 36.001 16.1143 36.4113C18.3651 36.9298 20.6975 36.9882 22.9714 36.5828C25.9896 36.0434 28.8032 34.6901 31.1086 32.6687C33.4139 30.6474 35.1234 28.0349 36.0527 25.1131C36.9819 22.1913 37.0955 19.0712 36.3813 16.0895C35.6671 13.1079 34.1522 10.3779 32 8.19419C29.7323 5.8808 26.8453 4.27085 23.6853 3.55749C20.5253 2.84414 17.2267 3.05768 14.185 4.1725C11.1434 5.28732 8.48805 7.25606 6.53754 9.84252C4.58702 12.429 3.4242 15.5233 3.18859 18.7542C2.91377 22.3688 3.8115 25.9758 5.74859 29.0399C5.94574 29.3551 6.0759 29.7075 6.13095 30.0752C6.186 30.4429 6.16478 30.8179 6.06859 31.177L4.92573 35.1656L9.14287 34.0342C9.34041 33.9797 9.54376 33.949 9.74859 33.9428H9.7143Z" fill="#99532E" fill-opacity="0.7"/>
<path d="M14.4572 12.3771C14.7792 12.3793 15.0941 12.4729 15.3652 12.6468C15.6362 12.8208 15.8524 13.0681 15.9886 13.36L16.9257 15.3486C17.0825 15.6857 17.1492 16.0577 17.1191 16.4283C17.0891 16.7989 16.9634 17.1554 16.7543 17.4628C16.5249 17.7972 16.3965 18.1904 16.3843 18.5956C16.3722 19.0009 16.4768 19.4011 16.6857 19.7486C17.6246 21.3364 19.029 22.5972 20.7086 23.36C21.0939 23.518 21.5177 23.5567 21.9252 23.4711C22.3327 23.3855 22.7051 23.1796 22.9943 22.88L23.0972 22.7771C23.4101 22.4647 23.8118 22.2565 24.2474 22.1808C24.6831 22.1051 25.1315 22.1657 25.5314 22.3543L26.8 22.96C27.0594 23.0829 27.2914 23.2567 27.4822 23.4712C27.6729 23.6857 27.8185 23.9364 27.9102 24.2084C28.002 24.4804 28.038 24.7681 28.0161 25.0543C27.9942 25.3405 27.9149 25.6194 27.7829 25.8743C27.1657 27.0171 25.76 28.0457 22.5714 27.3943C16.8572 26.2514 12.9943 19.8743 12.4914 19.0057L12.3886 18.8C12.1143 18.1257 10.8 14.5486 13.5314 12.6171C13.8062 12.4396 14.1308 12.3554 14.4572 12.3771Z" fill="#99532E" fill-opacity="0.7"/>
</g>
<defs>
<clipPath id="clip0_66_2">
<rect width="40" height="40" fill="white"/>
</clipPath>
</defs>
</svg>
