<svg width="28" height="25" viewBox="0 0 28 25" fill="none" xmlns="http://www.w3.org/2000/svg">
<path d="M2.9513 2.58626C4.40138 1.13592 6.3463 0.287615 8.3958 0.21157C10.4453 0.135526 12.4477 0.837364 14.0013 2.17626C15.5535 0.839595 17.5533 0.138546 19.6003 0.21346C21.6474 0.288373 23.5906 1.13372 25.0409 2.58027C26.4912 4.02681 27.3417 5.96779 27.4219 8.01462C27.5022 10.0615 26.8064 12.0631 25.4738 13.6188L15.7676 23.3563C15.3216 23.8024 14.7235 24.0634 14.0932 24.087C13.4629 24.1107 12.8469 23.8952 12.3688 23.4838L12.2313 23.3575L2.5263 13.6188C1.19441 12.0644 0.498278 10.0646 0.577072 8.01923C0.655866 5.97383 1.50378 4.03353 2.9513 2.58626ZM4.7188 4.35376C3.69661 5.37624 3.10737 6.75306 3.07339 8.19847C3.03941 9.64388 3.56329 11.0469 4.5363 12.1163L4.7188 12.3088L14.0001 21.59L20.6288 14.96L16.2101 10.5413L14.8851 11.8663C14.5369 12.2146 14.1235 12.4909 13.6686 12.6795C13.2136 12.8681 12.7259 12.9652 12.2334 12.9653C11.2388 12.9656 10.2848 12.5707 9.5813 11.8675C8.87782 11.1644 8.48247 10.2105 8.48224 9.21589C8.482 8.22124 8.8769 7.26724 9.58005 6.56376L12.2076 3.93501C11.1619 3.10048 9.85307 2.66587 8.51591 2.70917C7.17876 2.75246 5.90079 3.27083 4.9113 4.17126L4.7188 4.35376ZM15.3263 7.88876C15.5607 7.65442 15.8786 7.52277 16.2101 7.52277C16.5415 7.52277 16.8594 7.65442 17.0938 7.88876L22.3963 13.1913L23.2813 12.3088C24.3206 11.2702 24.9123 9.86615 24.9298 8.39696C24.9474 6.92776 24.3893 5.51003 23.3751 4.44695C22.3608 3.38387 20.9709 2.75984 19.5025 2.70832C18.0341 2.6568 16.6038 3.18188 15.5176 4.17126L15.3263 4.35376L11.3488 8.33126C11.1321 8.54778 11.0025 8.83631 10.9845 9.14209C10.9666 9.44786 11.0615 9.7496 11.2513 9.99001L11.3488 10.0988C11.5653 10.3154 11.8539 10.445 12.1596 10.463C12.4654 10.481 12.7671 10.3861 13.0076 10.1963L13.1163 10.0988L15.3263 7.88876Z" fill="#99532E"/>
</svg>
