<svg width="24" height="25" viewBox="0 0 24 25" fill="none" xmlns="http://www.w3.org/2000/svg">
<path d="M12 3.33334C7.035 3.33334 3 7.36834 3 12.3333C3 17.2983 7.035 21.3333 12 21.3333C16.965 21.3333 21 17.2983 21 12.3333C21 7.36834 16.965 3.33334 12 3.33334ZM12 19.8333C7.86 19.8333 4.5 16.4733 4.5 12.3333C4.5 8.19334 7.86 4.83334 12 4.83334C16.14 4.83334 19.5 8.19334 19.5 12.3333C19.5 16.4733 16.14 19.8333 12 19.8333Z" fill="#99532E" fill-opacity="0.7"/>
<path d="M12 10.6083C11.58 10.6083 11.25 10.9383 11.25 11.3583V16.4583C11.25 16.8783 11.58 17.2083 12 17.2083C12.42 17.2083 12.75 16.8783 12.75 16.4583V11.3583C12.75 10.9533 12.42 10.6083 12 10.6083Z" fill="#99532E" fill-opacity="0.7"/>
<path d="M12.015 7.53334C11.625 7.50334 11.265 7.90834 11.25 8.31334C11.25 8.32834 11.25 8.41834 11.25 8.43334C11.25 8.83834 11.565 9.13834 11.985 9.15334H12C12.405 9.15334 12.735 8.79334 12.75 8.40334C12.75 8.38834 12.75 8.23834 12.75 8.23834C12.75 7.80334 12.435 7.53334 12.015 7.53334Z" fill="#99532E" fill-opacity="0.7"/>
</svg>
