<svg width="24" height="25" viewBox="0 0 24 25" fill="none" xmlns="http://www.w3.org/2000/svg">
<g clip-path="url(#clip0_41_1142)">
<path d="M12.7499 21.3333C12.551 21.3333 12.3602 21.2543 12.2196 21.1137C12.0789 20.973 11.9999 20.7823 11.9999 20.5833C11.9999 20.3844 12.0789 20.1937 12.2196 20.053C12.3602 19.9124 12.551 19.8333 12.7499 19.8333C14.4296 19.8336 16.0607 19.27 17.3819 18.2329C18.7031 17.1959 19.638 15.7453 20.0367 14.1137C20.4354 12.482 20.2749 10.7638 19.5808 9.23424C18.8868 7.7047 17.6994 6.45241 16.2089 5.67802C14.7184 4.90362 13.0112 4.65196 11.3606 4.96336C9.7101 5.27475 8.21188 6.13117 7.10601 7.39539C6.00015 8.65961 5.35066 10.2585 5.26161 11.9357C5.17257 13.613 5.64912 15.2716 6.61492 16.6458C6.72878 16.8081 6.77377 17.0089 6.74004 17.2042C6.70631 17.3996 6.59661 17.5736 6.43492 17.6883C6.35431 17.7459 6.26309 17.7869 6.16655 17.809C6.07 17.8311 5.97003 17.8339 5.8724 17.8172C5.77478 17.8004 5.68144 17.7645 5.59777 17.7115C5.5141 17.6585 5.44176 17.5895 5.38492 17.5083C4.22604 15.8594 3.65417 13.8692 3.76093 11.8566C3.8677 9.84397 4.64691 7.92544 5.97374 6.40836C7.30057 4.89128 9.09821 3.86346 11.0787 3.48957C13.0591 3.11567 15.1078 3.41735 16.8964 4.34626C18.685 5.27517 20.11 6.77755 20.9432 8.61271C21.7764 10.4479 21.9695 12.5096 21.4916 14.4675C21.0137 16.4255 19.8924 18.1664 18.3074 19.4112C16.7224 20.6561 14.7654 21.333 12.7499 21.3333Z" fill="#99532E" fill-opacity="0.7"/>
<path d="M6.75 18.3333H3C2.80109 18.3333 2.61032 18.2543 2.46967 18.1137C2.32902 17.973 2.25 17.7823 2.25 17.5833C2.25 17.3844 2.32902 17.1937 2.46967 17.053C2.61032 16.9124 2.80109 16.8333 3 16.8333H6V13.8333C6 13.6344 6.07902 13.4437 6.21967 13.303C6.36032 13.1624 6.55109 13.0833 6.75 13.0833C6.94891 13.0833 7.13968 13.1624 7.28033 13.303C7.42098 13.4437 7.5 13.6344 7.5 13.8333V17.5833C7.5 17.7823 7.42098 17.973 7.28033 18.1137C7.13968 18.2543 6.94891 18.3333 6.75 18.3333Z" fill="#99532E" fill-opacity="0.7"/>
<path d="M10.5 15.3333C10.4012 15.3339 10.3034 15.315 10.212 15.2777C10.1206 15.2403 10.0375 15.1854 9.96745 15.1158C9.89716 15.0461 9.84136 14.9632 9.80329 14.8718C9.76521 14.7804 9.74561 14.6824 9.74561 14.5833C9.74561 14.4843 9.76521 14.3863 9.80329 14.2949C9.84136 14.2035 9.89716 14.1206 9.96745 14.0508L12 12.0258V8.58334C12 8.38443 12.079 8.19367 12.2196 8.05301C12.3603 7.91236 12.551 7.83334 12.75 7.83334C12.9489 7.83334 13.1396 7.91236 13.2803 8.05301C13.4209 8.19367 13.5 8.38443 13.5 8.58334V12.3333C13.5005 12.432 13.4816 12.5299 13.4443 12.6213C13.407 12.7127 13.352 12.7958 13.2825 12.8658L11.0325 15.1158C10.9624 15.1854 10.8793 15.2403 10.7879 15.2777C10.6965 15.315 10.5987 15.3339 10.5 15.3333Z" fill="#99532E" fill-opacity="0.7"/>
</g>
<defs>
<clipPath id="clip0_41_1142">
<rect width="24" height="24" fill="white" transform="translate(0 0.333344)"/>
</clipPath>
</defs>
</svg>
